<?xml version="1.0" ?><svg viewBox="0 0 512 512" xmlns="http://www.w3.org/2000/svg"><g id="Safe_excercise_health_care"><path d="M445.4326,370.6182H442.32v-22.773a15.74,15.74,0,0,0-15.74-15.74H407.6726a15.6768,15.6768,0,0,0-3.7393.4675v-1.3674a15.7392,15.7392,0,0,0-15.7392-15.7393H369.2859a15.7393,15.7393,0,0,0-15.7393,15.7393v40.1558a3.2786,3.2786,0,0,1-3.2787,3.2786H162.7813a3.2786,3.2786,0,0,1-3.2787-3.2786V331.2056a15.7392,15.7392,0,0,0-15.7392-15.7393H124.8552a15.7393,15.7393,0,0,0-15.7393,15.7393v1.3674a15.676,15.676,0,0,0-3.7392-.4675H86.4685a15.7392,15.7392,0,0,0-15.7393,15.7392v22.7735h-3.112c-14.8542,0-27.4262,11.6244-27.8669,26.4721a27.3277,27.3277,0,0,0,27.2856,28.1241h3.6933V449.53A15.7392,15.7392,0,0,0,86.4685,465.269h18.9082a15.6709,15.6709,0,0,0,3.7392-.4675v1.3674a15.7393,15.7393,0,0,0,15.7393,15.7393h18.9082a15.7392,15.7392,0,0,0,15.7392-15.7393v-41.2a3.2787,3.2787,0,0,1,3.2787-3.2787H350.2679a3.2787,3.2787,0,0,1,3.2787,3.2787v41.2a15.7393,15.7393,0,0,0,15.7393,15.7393h18.9082a15.7392,15.7392,0,0,0,15.7392-15.7393v-1.3674a15.6717,15.6717,0,0,0,3.7393.4675h18.9082A15.7392,15.7392,0,0,0,442.32,449.53V425.2144h3.6934A27.3282,27.3282,0,0,0,473.299,397.09C472.8581,382.2424,460.2864,370.6182,445.4326,370.6182ZM109.1159,449.53a3.7435,3.7435,0,0,1-3.7392,3.7392H86.4685a3.7435,3.7435,0,0,1-3.7393-3.7392V347.8452a3.744,3.744,0,0,1,3.7393-3.74h18.9082a3.7439,3.7439,0,0,1,3.7392,3.74Zm38.3867,16.6391a3.7435,3.7435,0,0,1-3.7392,3.7393H124.8552a3.7436,3.7436,0,0,1-3.7393-3.7393V331.2056a3.7437,3.7437,0,0,1,3.7393-3.7393h18.9082a3.7436,3.7436,0,0,1,3.7392,3.7393ZM391.9333,347.8452V466.1689a3.7435,3.7435,0,0,1-3.7392,3.7393H369.2859a3.7435,3.7435,0,0,1-3.7393-3.7393V331.2056a3.7436,3.7436,0,0,1,3.7393-3.7393h18.9082a3.7436,3.7436,0,0,1,3.7392,3.7393Zm38.3867,28.773V449.53a3.7435,3.7435,0,0,1-3.7392,3.7392H407.6726a3.7435,3.7435,0,0,1-3.7393-3.7392V347.8452a3.744,3.744,0,0,1,3.7393-3.74h18.9082a3.7439,3.7439,0,0,1,3.7392,3.74Z"/><path d="M230.154,299.3677a138.7847,138.7847,0,0,0,25.8721,2.44c65.2578-.001,123.5576-46.4087,136.1484-112.8242a138.6917,138.6917,0,0,0-27.08-111.3188,6,6,0,0,0-9.4492,7.3974,126.21,126.21,0,1,1-19.6377-20.0561,6,6,0,0,0,7.5918-9.293A138.64,138.64,0,1,0,230.154,299.3677Z"/><path d="M338.67,122.5887a23.3585,23.3585,0,0,0-18.0682-21.89A110.1825,110.1825,0,0,1,266.66,70.3666a15.6408,15.6408,0,0,0-22.5174,0A110.1825,110.1825,0,0,1,190.2,100.6986a23.3594,23.3594,0,0,0-18.0681,21.89c-.9265,27.2964,4.4878,95.8355,74.6023,142.6177a15.5749,15.5749,0,0,0,17.3342,0C334.1825,218.4242,339.5968,149.8851,338.67,122.5887Zm-89.2691,129.872c-25.9268-18.307-44.4858-41.59-55.1677-69.2894a154.2719,154.2719,0,0,1-10.1084-60.1753,11.3418,11.3418,0,0,1,8.7937-10.61,122.69,122.69,0,0,0,56.4824-30.3389v20.9644a4.9291,4.9291,0,0,1-2.028,4.0034,140.33,140.33,0,0,1-41.01,20.3821,5.9868,5.9868,0,0,0-4.2331,5.9511c.9731,26.4358,9.7872,63.9445,45.5343,94.9314a4.9875,4.9875,0,0,1,1.7369,3.7635Zm11.5-71.1547a5.5,5.5,0,0,1-11,0V169.2587H237.8538a5.5,5.5,0,0,1,0-11h12.0474V146.2113a5.5,5.5,0,0,1,11,0v12.0474h12.0474a5.5,5.5,0,0,1,0,11H260.9012Zm55.6675,1.8653c-10.6819,27.7-29.2412,50.9824-55.1675,69.29V232.0426a4.9878,4.9878,0,0,1,1.7369-3.7635c35.7469-30.9868,44.5608-68.4953,45.534-94.9309a5.9866,5.9866,0,0,0-4.233-5.9511,140.3312,140.3312,0,0,1-41.01-20.3818,4.93,4.93,0,0,1-2.0281-4.0035V82.0475a122.6928,122.6928,0,0,0,56.4822,30.3386v.0005a11.3405,11.3405,0,0,1,8.7937,10.6094A154.2719,154.2719,0,0,1,316.5687,183.1713Z"/></g></svg>